<svg width="148" height="46" viewBox="0 0 148 46" fill="none" xmlns="http://www.w3.org/2000/svg">
<path fill-rule="evenodd" clip-rule="evenodd" d="M42.4628 11.5618C42.4628 11.5155 42.5091 11.4614 42.6017 11.392C42.6943 11.3225 42.7715 11.2762 42.8409 11.2531C43.6822 11.2067 44.5158 11.199 45.3339 11.2222C46.152 11.2453 46.9856 11.2531 47.8268 11.2531C48.4674 11.2531 49.0617 11.3302 49.602 11.4923C50.15 11.6544 50.6517 11.9786 51.107 12.4802C51.5161 12.8661 51.8171 13.3138 52.0101 13.8155C52.203 14.3171 52.3342 14.8111 52.4037 15.3051C52.4731 15.7913 52.4963 16.2544 52.4731 16.6866C52.45 17.1188 52.4191 17.4584 52.3728 17.7131C52.3265 17.9215 52.2647 18.1144 52.1876 18.292C52.1104 18.4695 52.0255 18.6547 51.9329 18.8399C51.8866 18.9326 51.8325 19.002 51.7631 19.0638C51.6936 19.1178 51.655 19.1718 51.6396 19.2181C51.6319 19.2644 51.655 19.3262 51.709 19.4034C51.7631 19.4805 51.8943 19.5886 52.1027 19.7275C52.2879 19.8665 52.4809 20.0671 52.6815 20.345C52.8899 20.6151 53.0674 20.9238 53.2295 21.2711C53.3916 21.6107 53.5228 21.9735 53.6386 22.3517C53.7543 22.7299 53.8238 23.0849 53.847 23.4322C53.9164 24.2966 53.9627 25.1611 54.0013 26.0101C54.0322 26.8668 54.0399 27.7235 54.0168 28.5879C54.0168 30.2087 53.3993 31.5748 52.1721 32.6939C51.8094 33.0104 51.408 33.2496 50.9758 33.4117C50.5436 33.5738 50.096 33.6741 49.6406 33.7204C49.4322 33.7436 48.9923 33.7745 48.3054 33.8053C47.6185 33.8362 46.9007 33.8748 46.152 33.9057C45.4034 33.9366 44.7087 33.9597 44.0836 33.9597C43.4584 33.9597 43.0725 33.9366 42.9413 33.8902C42.8255 33.8439 42.7329 33.7513 42.6711 33.597C42.6017 33.4503 42.5477 33.3191 42.5014 33.2033C42.5014 33.1802 42.4936 32.8637 42.4859 32.2463C42.4705 31.6288 42.4628 30.8262 42.455 29.8382C42.4473 28.8426 42.4319 27.7235 42.4242 26.4731C42.4165 25.2151 42.4087 23.9339 42.4087 22.6064C42.4087 21.2866 42.4087 19.9822 42.4087 18.7087C42.4087 17.4275 42.4087 16.2775 42.4087 15.2587C42.4087 14.2322 42.4165 13.391 42.4242 12.7272C42.4396 12.0635 42.455 11.6775 42.4782 11.5618H42.4628ZM47.3715 41.4385V39.5399C47.3715 39.2234 47.2171 39.0691 46.9007 39.0691H44.292C43.9755 39.0691 43.8211 39.2312 43.8211 39.5399V41.4385H47.3715ZM7.93197 16.2235C8.49539 15.7913 9.06653 15.1275 9.51418 14.8728C9.65311 15.143 9.96955 16.7175 10.0544 17.1188C10.2088 17.8675 10.3863 18.6547 10.5716 19.4111C11.8682 24.6362 12.2387 28.1634 13.0414 33.6355C12.8484 33.759 11.0269 34.0986 10.6951 34.0909L9.66854 24.7906C9.42156 23.3473 9.07425 21.9658 8.7964 20.4993C8.63432 19.6967 7.97056 16.7483 7.93969 16.2158L7.93197 16.2235ZM3.66386 8.46682C4.86788 8.58259 6.44238 5.87354 5.70144 5.54166C5.0454 5.24837 5.15345 6.22085 4.52829 6.98494C3.64071 8.06548 3.22393 7.61783 3.67158 8.46682H3.66386ZM6.76654 7.35541C6.34976 7.58695 6.52728 8.52084 5.22292 9.60138C5.08399 9.71715 4.86788 9.84064 4.78298 9.91782C4.42023 10.2574 4.75983 10.7977 5.28466 10.5739C6.07963 10.2343 6.95177 8.96078 7.28365 8.0346C7.46888 7.52521 7.18331 7.11615 6.75882 7.35541H6.76654ZM9.62224 34.361L7.83164 34.7315C7.58466 33.6201 7.12929 25.9792 6.82828 24.8215C6.68936 24.2812 4.67493 16.5091 4.65178 16.1155L6.89775 16.5322C7.20647 17.9678 7.50747 19.4188 7.78533 20.8389C8.06318 22.2591 8.43365 23.6792 8.65747 25.1225C8.88902 26.6352 8.97391 28.2097 9.17459 29.7302C9.25948 30.4094 9.70713 33.9288 9.62995 34.361H9.62224ZM10.5098 14.2708C15.0789 13.6457 19.7793 12.6423 24.4641 11.9477C26.1853 11.693 25.7453 11.1604 25.8148 14.0933C25.9151 18.4618 26.2547 17.2963 25.0353 21.2557C24.9504 21.5336 24.8115 21.7883 24.9272 22.0738C25.0276 22.3362 25.3672 22.4443 25.6604 22.2977C25.9306 22.1587 26.1313 21.2326 26.2316 20.8467C26.2933 20.9393 26.247 20.8544 26.3242 21.0242L26.4631 21.5027C26.8645 23.0926 28.8094 30.448 28.7631 30.7413L14.1219 33.4735C13.9675 33.1647 13.4273 29.2054 13.3424 28.503L12.5937 23.5711C12.4393 22.8148 10.5175 14.6104 10.5098 14.2631V14.2708ZM14.5927 9.97185C15.3028 10.2651 15.7658 10.651 16.8078 10.3578C17.7417 10.0953 18.035 9.54735 18.2434 9.37755C18.3823 9.2695 18.2434 9.32353 18.4363 9.28494L18.5907 11.8551L15.1561 12.4339C14.9786 12.1561 14.9863 11.5849 14.9169 11.1759C14.8474 10.7437 14.639 10.3192 14.6004 9.97185H14.5927ZM22.4111 5.97387L25.6682 6.62991L24.8346 10.8131L21.4001 11.3457L22.4111 5.96615V5.97387ZM15.5575 2.65509C17.1242 2.192 17.9809 4.26817 18.2048 5.58025C18.4749 7.17018 17.7185 9.05339 16.4759 9.36212C14.8783 9.76346 14.0061 7.7336 13.8132 6.44467C13.6048 5.03998 14.0987 3.07958 15.5497 2.65509H15.5575ZM20.3118 11.5309C19.4242 11.8396 19.6017 11.6158 19.5554 10.7359L19.2853 5.37958L21.3923 5.7732L20.3118 11.5232V11.5309ZM5.82493 14.4098L3.48634 9.81749C3.13903 9.05339 0.0595062 2.60106 2.63735 2.47757C3.74104 2.42354 5.11486 3.91314 5.686 4.60005C6.03332 5.01683 6.45009 5.54938 6.82056 6.01246C7.16788 6.43696 7.56922 7.03125 7.88566 7.48662C8.19439 7.93427 8.11721 7.94199 7.95512 8.50541C7.63096 9.6091 7.48432 10.049 6.72795 11.0369C5.97157 12.0171 5.53164 12.0326 5.73231 12.4494C5.94842 12.9047 6.40379 12.5806 6.61989 12.4339C7.1756 12.0403 7.13701 11.8551 7.22962 11.994C7.36855 12.241 7.39942 12.9896 7.40714 13.3447C7.22962 13.553 6.89003 13.7537 6.6662 13.9158C6.63533 14.7957 7.06754 14.5641 7.56922 14.3326L7.68499 15.0812C7.46117 15.2819 7.28365 15.5289 6.79741 15.4517C6.35748 15.3745 6.29573 15.3591 6.12593 14.95L6.08734 14.8497C6.01016 14.6722 5.91755 14.5487 5.83265 14.4175L5.82493 14.4098ZM19.7407 4.35307C19.8333 4.16783 20.4585 3.40374 20.6977 3.31884L21.1685 4.66179C20.798 4.60777 20.0108 4.53059 19.7407 4.35307ZM8.63432 14.2014C7.45345 9.50876 9.67626 10.4041 9.57593 7.53293C9.44472 6.57588 9.30579 6.59132 9.83834 6.52186C11.49 6.32119 11.3742 5.85038 11.6598 7.62555C12.7249 9.94869 13.5507 9.29265 13.8518 11.3765L14.0138 12.65L10.2551 13.2443C9.38297 13.3138 9.15143 13.7537 8.63432 14.2014ZM24.7497 3.78965L25.3749 5.45676L22.4652 4.92421C22.3185 4.73126 21.6933 3.0024 21.7011 3.0024L21.8014 2.93294C22.1719 3.10274 23.7464 3.28797 24.3407 3.4269C24.7111 3.5118 24.6108 3.48092 24.7497 3.79737V3.78965ZM24.5876 2.3618C24.2172 2.38495 23.1444 2.13026 22.689 2.05308C21.238 1.78294 21.4618 1.92959 21.6007 1.14234C21.8554 1.15006 24.2943 1.58227 24.688 1.74435L24.5876 2.3618ZM9.33667 5.24065L9.22861 4.22186L10.8185 3.9826L11.0346 5.02454L9.34438 5.23293L9.33667 5.24065ZM7.92425 3.33428C8.04774 4.57689 8.34103 5.41817 8.25613 6.18998C7.12929 4.85475 4.45111 0.60979 1.98903 1.53596C-0.943847 2.63965 1.44105 7.88796 2.25145 9.66312C2.62963 10.489 3.05413 11.3457 3.46319 12.1638C3.6793 12.5883 3.87997 12.9665 4.09607 13.391C4.31218 13.8155 4.5746 14.2322 4.74439 14.649C3.15446 15.5134 2.93064 13.7383 4.22728 18.9403C4.86788 21.5336 5.7709 24.4279 6.00244 26.9903C6.09506 27.9705 6.15681 29.0741 6.2803 30.008C6.45781 31.297 6.54271 33.0567 6.70479 34.5C6.78969 35.2795 6.65848 35.2872 6.99036 35.8429C7.93197 36.0204 11.7524 34.7855 13.0491 34.8087C13.4504 35.6191 13.188 37.4792 12.8407 38.1969C11.8605 40.2654 9.58364 40.1419 7.85479 38.6446C6.37291 37.3711 5.94842 35.2641 4.99137 37.0624C4.76755 37.4869 4.56688 37.8805 4.33533 38.3282C3.8954 39.1926 3.48634 40.0261 3.06185 40.8906C2.77628 41.4849 2.94608 42.11 3.63299 42.0097C4.12695 41.9402 4.74439 40.3349 5.09943 39.6402C5.29238 39.262 5.54708 38.6523 5.77862 38.3282C5.96385 38.4053 8.54942 42.0946 11.9068 40.7362C13.5816 40.057 14.4229 38.3513 14.5155 36.5993C14.5618 35.7657 14.3611 35.2563 14.3534 34.5463C14.6853 34.3842 20.1266 33.4349 20.9524 33.2728C21.8323 33.103 21.8014 33.0258 22.5423 33.3654C22.9591 33.5584 23.4685 33.8594 23.785 34.1063C24.14 34.3842 24.5027 34.6775 24.85 35.0402C26.0232 36.252 26.8722 37.9114 27.289 39.5245C27.3584 39.7869 27.4665 40.4738 27.59 40.6745C27.7906 41.0063 28.2692 41.0449 28.5239 40.8211C28.7477 40.6281 29.5504 38.5288 31.3641 37.209C31.5416 37.0778 31.6729 37.0084 31.8195 36.908C32.7688 36.2674 32.2903 34.3919 29.6276 37.0469C29.1182 37.5563 28.5625 38.3745 28.3309 38.5751C27.8138 37.3094 27.0266 35.4802 26.0927 34.5077C25.344 33.7282 24.086 32.7557 24.0396 32.6862C25.3903 32.555 27.5591 32.0225 29.0641 31.76C29.8205 31.6288 30.137 31.5903 29.8977 30.749C29.041 27.7621 28.2846 24.1423 27.4433 21.1785C27.289 20.646 27.1809 20.152 27.042 19.6195C26.8799 19.0175 26.8645 14.5332 26.8413 13.6997C26.8259 13.2752 26.8799 11.1064 26.7024 10.8363C26.3165 10.2651 25.8611 11.1218 26.0695 10.1031L26.6715 6.94635C26.795 6.29803 26.8722 6.22857 26.6329 5.67286C26.3242 4.9628 26.0695 4.26817 25.7608 3.52723C25.5215 2.94837 25.5447 2.99468 25.6604 2.35408C25.9615 0.710125 26.2316 0.89536 23.5688 0.424556C23.1752 0.355093 21.3152 -0.0616848 21.0605 0.00777812C20.3967 0.169858 20.6591 1.65173 20.2192 2.18428C20.0803 2.35408 19.9799 2.42354 19.8487 2.57019L19.1464 3.37287C18.8762 3.68931 18.9689 3.67388 18.7605 3.71247C17.2168 0.563481 14.0987 1.01885 13.0568 3.87455C12.6863 4.89334 12.6786 5.71146 12.7712 6.89233C12.0071 6.15139 12.0766 4.77756 11.8065 3.1722C11.7216 2.68596 11.7756 2.82489 10.7722 2.94837C9.9078 3.05643 8.78868 3.29569 7.92425 3.342V3.33428ZM142.829 40.4815V40.9523C142.829 41.2687 142.983 41.4231 143.3 41.4231H145.901C146.217 41.4231 146.372 41.2687 146.372 40.9523C146.372 40.6359 146.217 40.4815 145.901 40.4815H142.821H142.829ZM146.85 40.9523C146.85 41.5852 146.534 41.9016 145.901 41.9016H143.3C142.667 41.9016 142.35 41.5852 142.35 40.9523V39.5322C142.35 38.8993 142.667 38.5829 143.3 38.5829H145.901C146.534 38.5829 146.85 38.8993 146.85 39.5322C146.85 39.8486 146.773 40.0802 146.611 40.2422C146.773 40.4043 146.85 40.6359 146.85 40.9523ZM146.379 39.5322C146.379 39.2157 146.225 39.0614 145.908 39.0614H143.307C142.991 39.0614 142.837 39.2235 142.837 39.5322V40.003H145.916C146.233 40.003 146.387 39.8486 146.387 39.5322H146.379ZM140.992 40.9523C140.992 41.5852 140.676 41.9016 140.043 41.9016H137.442C136.809 41.9016 136.492 41.5852 136.492 40.9523V39.5322C136.492 38.8993 136.809 38.5829 137.442 38.5829H140.043C140.676 38.5829 140.992 38.8993 140.992 39.5322V40.9523ZM140.521 40.9523V39.5322C140.521 39.2157 140.359 39.0614 140.043 39.0614H137.442C137.125 39.0614 136.971 39.2235 136.971 39.5322V40.9523C136.971 41.2687 137.133 41.4231 137.442 41.4231H140.043C140.359 41.4231 140.514 41.2687 140.514 40.9523H140.521ZM130.642 39.0614V38.5906H135.142V39.0614H133.135V41.9016H132.657V39.0614H130.65H130.642ZM125.255 40.4815V41.9016H124.784V38.5906H125.255V40.0107H128.095C128.404 40.0107 128.643 39.8563 128.805 39.5399V38.5906H129.276V39.5399C129.276 39.8563 129.114 40.0879 128.797 40.25C129.114 40.412 129.268 40.6436 129.276 40.96V41.9094H128.805V40.96C128.651 40.6436 128.412 40.4892 128.095 40.4892H125.255V40.4815ZM122.947 40.3966C122.816 40.4506 122.662 40.4738 122.476 40.4738H119.875C119.242 40.4738 118.926 40.1573 118.926 39.5245V38.5751H119.397V39.5245C119.397 39.8409 119.559 39.9953 119.868 39.9953H122.469C122.785 39.9953 122.939 39.8409 122.939 39.5245V38.5751H123.41V40.9446C123.41 41.5775 123.094 41.8939 122.461 41.8939H118.911V41.4231H122.461C122.777 41.4231 122.932 41.2687 122.932 40.9523V40.3966H122.947ZM116.611 41.4231V39.5245C116.611 39.208 116.456 39.0537 116.14 39.0537H113.531C113.215 39.0537 113.06 39.2157 113.06 39.5245V41.4231H116.611ZM117.081 41.4231C117.398 41.4231 117.552 41.5775 117.56 41.8939V42.3647C117.56 42.5191 117.483 42.604 117.321 42.604C117.166 42.604 117.089 42.5268 117.089 42.3647V41.8939H112.589V42.3647C112.589 42.5191 112.512 42.604 112.35 42.604C112.188 42.604 112.111 42.5268 112.111 42.3647V41.8939C112.111 41.5775 112.273 41.4231 112.582 41.4231V39.5245C112.582 38.8916 112.898 38.5751 113.531 38.5751H116.132C116.765 38.5751 117.081 38.8916 117.081 39.5245V41.4231ZM110.753 40.9446C110.753 41.5775 110.436 41.8939 109.803 41.8939H107.202C106.569 41.8939 106.253 41.5775 106.253 40.9446V39.5245C106.253 38.8916 106.569 38.5751 107.202 38.5751H109.803C110.436 38.5751 110.753 38.8916 110.753 39.5245V40.9446ZM110.282 40.9446V39.5245C110.282 39.208 110.12 39.0537 109.803 39.0537H107.202C106.886 39.0537 106.731 39.2157 106.731 39.5245V40.9446C106.731 41.261 106.893 41.4154 107.202 41.4154H109.803C110.12 41.4154 110.274 41.261 110.274 40.9446H110.282ZM100.873 39.9953H103.953C104.269 39.9953 104.424 39.8409 104.424 39.5245C104.424 39.208 104.262 39.0537 103.945 39.0537H100.866V40.003L100.873 39.9953ZM100.873 40.4661V41.8862H100.403V38.5751H103.953C104.586 38.5751 104.902 38.8916 104.902 39.5245C104.902 40.1573 104.586 40.4738 103.953 40.4738H100.873V40.4661ZM98.5656 41.8862V39.5167C98.5656 39.2003 98.4113 39.0459 98.0948 39.0459H95.4938C95.1774 39.0459 95.023 39.208 95.023 39.5167V41.8862H94.5522V39.5167C94.5522 38.8839 94.8687 38.5674 95.5016 38.5674H98.1026C98.7354 38.5674 99.0519 38.8839 99.0519 39.5167V41.8862H98.5811H98.5656ZM86.1704 40.7053H87.9996L87.0888 39.2543L86.1781 40.7053H86.1704ZM88.2928 41.1761H85.8694L85.4217 41.8862H84.8274L86.8959 38.5751H87.2509L89.3194 41.8862H88.7251L88.2774 41.1761H88.2928ZM79.4479 40.4661V41.8862H78.9771V38.5751H79.4479V39.9953H82.2882C82.5969 39.9953 82.8362 39.8409 82.9982 39.5245V38.5751H83.469V39.5245C83.469 39.8409 83.307 40.0724 82.9905 40.2345C83.307 40.3966 83.4613 40.6281 83.469 40.9446V41.8939H82.9982V40.9446C82.8439 40.6281 82.6046 40.4738 82.2882 40.4738H79.4479V40.4661ZM73.5899 40.4661V40.9369C73.5899 41.2533 73.7442 41.4077 74.0607 41.4077H76.6617C76.9781 41.4077 77.1325 41.2533 77.1325 40.9369C77.1325 40.6204 76.9781 40.4661 76.6617 40.4661H73.5821H73.5899ZM77.611 40.9369C77.611 41.5698 77.2946 41.8862 76.6617 41.8862H74.0607C73.4278 41.8862 73.1113 41.5698 73.1113 40.9369V39.5167C73.1113 38.8839 73.4278 38.5674 74.0607 38.5674H76.6617C77.2946 38.5674 77.611 38.8839 77.611 39.5167C77.611 39.8332 77.5338 40.0647 77.3717 40.2268C77.5338 40.3889 77.611 40.6204 77.611 40.9369ZM77.1402 39.5167C77.1402 39.2003 76.9858 39.0459 76.6694 39.0459H74.0684C73.752 39.0459 73.5976 39.208 73.5976 39.5167V39.9875H76.6771C76.9936 39.9875 77.1479 39.8332 77.1479 39.5167H77.1402ZM68.5963 40.6976H70.4254L69.5147 39.2466L68.604 40.6976H68.5963ZM70.7187 41.1684H68.2952L67.8476 41.8785H67.2533L69.3218 38.5674H69.6768L71.7452 41.8785H71.1509L70.7033 41.1684H70.7187ZM61.403 39.0382V38.5674H65.9026V39.0382H63.8959V41.8785H63.4174V39.0382H61.4107H61.403ZM60.0369 41.8785H56.4865C55.8537 41.8785 55.5372 41.562 55.5372 40.9291V39.509C55.5372 38.8761 55.8537 38.5597 56.4865 38.5597H60.0369V39.0305H56.4865C56.1701 39.0305 56.0157 39.1926 56.0157 39.5013V40.9214C56.0157 41.2379 56.1701 41.3922 56.4865 41.3922H60.0369V41.863V41.8785ZM54.1788 40.9291C54.1788 41.562 53.8624 41.8785 53.2295 41.8785H50.6285C49.9956 41.8785 49.6792 41.562 49.6792 40.9291V39.509C49.6792 38.8761 49.9956 38.5597 50.6285 38.5597H53.2295C53.8624 38.5597 54.1788 38.8761 54.1788 39.509V40.9291ZM53.708 40.9291V39.509C53.708 39.1926 53.546 39.0382 53.2295 39.0382H50.6285C50.3121 39.0382 50.1577 39.2003 50.1577 39.509V40.9291C50.1577 41.2456 50.3198 41.4 50.6285 41.4H53.2295C53.546 41.4 53.7003 41.2456 53.7003 40.9291H53.708ZM47.8423 41.4077C48.1587 41.4077 48.3131 41.562 48.3208 41.8785V42.3493C48.3208 42.5036 48.2436 42.5885 48.0815 42.5885C47.9272 42.5885 47.85 42.5114 47.85 42.3493V41.8785H43.3503V42.3493C43.3503 42.5036 43.2654 42.5885 43.1111 42.5885C42.949 42.5885 42.8718 42.5114 42.8718 42.3493V41.8785C42.8718 41.562 43.0339 41.4077 43.3426 41.4077V39.509C43.3426 38.8761 43.6591 38.5597 44.292 38.5597H46.893C47.5258 38.5597 47.8423 38.8761 47.8423 39.509V41.4077ZM139.865 15.3668C139.819 15.39 139.757 15.444 139.68 15.5212C139.603 15.5983 139.564 15.6601 139.564 15.7064C139.564 15.9379 139.572 16.2235 139.58 16.5708C139.595 16.9104 139.603 17.2577 139.611 17.6128C139.618 17.9678 139.634 18.3151 139.641 18.6547C139.657 18.9943 139.672 19.2799 139.695 19.5114C139.695 19.5577 139.734 19.6118 139.811 19.6812C139.888 19.7507 139.95 19.7816 139.996 19.7816C140.336 19.7816 140.699 19.7738 141.069 19.7661C141.447 19.7507 141.81 19.743 142.165 19.7352C142.52 19.7198 142.852 19.7198 143.153 19.7198C143.462 19.7198 143.717 19.7198 143.925 19.7198C144.334 19.7198 144.612 19.797 144.766 19.9591C144.913 20.1212 144.998 20.3604 145.021 20.6769C145.021 20.9316 145.029 21.1785 145.036 21.4332C145.052 21.6802 145.044 21.9349 145.021 22.1819C144.951 22.645 144.589 22.8919 143.925 22.9383C143.354 22.9846 142.759 22.9923 142.15 22.9537C141.532 22.9228 140.938 22.9228 140.375 22.9691C140.104 22.9923 139.935 23.0386 139.881 23.1235C139.827 23.2007 139.796 23.3782 139.796 23.656C139.819 24.1346 139.827 24.6748 139.827 25.2846C139.827 25.8866 139.827 26.4731 139.827 27.0443C139.827 27.6154 139.827 28.1094 139.827 28.5339C139.827 28.9584 139.834 29.2131 139.857 29.3057C139.881 29.3752 139.935 29.4446 140.012 29.5141C140.089 29.5835 140.166 29.6144 140.236 29.6144C140.714 29.6376 141.301 29.6453 141.995 29.6299C142.69 29.6144 143.369 29.6144 144.033 29.6144H146.356C146.541 29.6376 146.719 29.6453 146.904 29.6299C147.082 29.6144 147.213 29.7688 147.282 30.0852C147.305 30.1778 147.321 30.3399 147.336 30.5715C147.344 30.8107 147.352 31.0654 147.352 31.3356C147.352 31.6057 147.344 31.8681 147.336 32.1151C147.321 32.3621 147.321 32.5319 147.321 32.6245C147.321 32.8097 147.259 32.9718 147.136 33.1107C147.012 33.2574 146.842 33.3423 146.642 33.3654C146.503 33.3654 146.179 33.3654 145.669 33.3654C145.16 33.3654 144.558 33.3654 143.879 33.3654C143.192 33.3654 142.474 33.3654 141.71 33.3654C140.946 33.3654 140.236 33.3654 139.587 33.3654C138.939 33.3654 138.383 33.3654 137.928 33.3654C137.473 33.3654 137.226 33.3654 137.179 33.3654C136.955 33.3654 136.763 33.2882 136.616 33.1262C136.469 32.9641 136.384 32.7711 136.361 32.5473C136.338 32.2694 136.33 31.6134 136.33 30.5637C136.33 29.5141 136.323 28.2869 136.315 26.8745C136.299 25.4621 136.299 23.9493 136.299 22.344C136.299 20.7386 136.299 19.2413 136.299 17.8443C136.299 16.4551 136.292 15.2665 136.284 14.2708C136.276 13.2829 136.269 12.6963 136.269 12.5111C136.269 12.102 136.454 11.8937 136.817 11.8937C137.087 11.8937 137.619 11.8937 138.406 11.8937C139.194 11.8937 140.05 11.8859 140.984 11.8782C141.918 11.8705 142.829 11.8551 143.717 11.8473C144.604 11.8319 145.291 11.8319 145.77 11.8319C146.703 11.7856 147.105 12.2333 146.966 13.1671C146.92 13.3524 146.896 13.5453 146.896 13.7383C146.896 13.9312 146.896 14.1242 146.896 14.3017C146.92 14.5255 146.85 14.7262 146.696 14.9037C146.534 15.0735 146.333 15.1584 146.078 15.1584C146.032 15.1584 145.854 15.1661 145.546 15.1738C145.237 15.1893 144.867 15.197 144.434 15.2047C144.002 15.2124 143.531 15.2279 143.014 15.2356C142.505 15.2433 142.026 15.2587 141.594 15.2665C141.162 15.2819 140.784 15.2973 140.467 15.3205C140.151 15.3436 139.958 15.3514 139.888 15.3514L139.865 15.3668ZM121.504 11.7393C121.596 11.7161 121.921 11.7007 122.476 11.6853C123.032 11.6698 123.704 11.6698 124.475 11.6698C125.247 11.6698 126.081 11.6621 126.953 11.6544C127.833 11.6467 128.659 11.639 129.43 11.639C130.202 11.639 130.866 11.6467 131.414 11.6544C131.962 11.6698 132.278 11.6698 132.371 11.6698C132.664 11.693 132.865 11.7547 132.965 11.8551C133.066 11.9554 133.104 12.1561 133.089 12.4494C133.066 12.7426 133.066 13.0359 133.089 13.3215C133.112 13.6071 133.104 13.8926 133.058 14.1936C132.965 14.7879 132.587 15.0812 131.931 15.0812C131.476 15.0581 131.036 15.0658 130.611 15.0967C130.187 15.1275 129.755 15.1507 129.291 15.1507C129.044 15.1507 128.929 15.2742 128.952 15.5289C128.952 15.8222 128.952 16.4396 128.952 17.3735C128.952 18.3074 128.952 19.3956 128.952 20.6383C128.952 21.8809 128.952 23.193 128.952 24.5899C128.952 25.9792 128.952 27.2758 128.952 28.4721C128.952 29.6684 128.952 30.6872 128.952 31.5285C128.952 32.3698 128.952 32.8715 128.952 33.0335C128.952 33.2805 128.828 33.4117 128.574 33.4117C128.188 33.4349 127.802 33.4426 127.424 33.4272C127.045 33.4194 126.667 33.4194 126.281 33.4426C125.757 33.4889 125.494 33.2342 125.494 32.6939C125.471 32.1691 125.456 31.3973 125.44 30.3708C125.432 29.3443 125.417 28.2174 125.409 26.9903C125.401 25.7631 125.394 24.505 125.394 23.2315C125.394 21.9581 125.386 20.7849 125.378 19.7275C125.363 18.6701 125.363 17.798 125.363 17.1265C125.363 16.4551 125.363 16.1155 125.363 16.1155C125.363 15.9071 125.355 15.7296 125.332 15.5675C125.309 15.4285 125.278 15.3051 125.247 15.1893C125.216 15.0735 125.162 15.0195 125.093 15.0195C125.023 15.0195 124.846 15.0272 124.56 15.0349C124.275 15.0426 123.95 15.0504 123.588 15.0504C123.225 15.0504 122.855 15.0504 122.476 15.0504C122.098 15.0504 121.797 15.0504 121.573 15.0504C121.527 15.0504 121.473 14.9963 121.419 14.896C121.365 14.7957 121.334 14.7185 121.334 14.6722C121.334 14.5101 121.326 14.2863 121.319 13.993C121.311 13.6997 121.303 13.391 121.303 13.0822C121.303 12.7735 121.319 12.4879 121.357 12.2255C121.388 11.9631 121.442 11.801 121.512 11.7316L121.504 11.7393ZM111.764 15.3668C111.717 15.39 111.656 15.444 111.578 15.5212C111.501 15.5983 111.455 15.6601 111.455 15.7064C111.455 15.9379 111.463 16.2235 111.47 16.5708C111.486 16.9104 111.493 17.2577 111.501 17.6128C111.509 17.9678 111.524 18.3151 111.532 18.6547C111.547 18.9943 111.563 19.2799 111.586 19.5114C111.586 19.5577 111.625 19.6118 111.71 19.6812C111.787 19.7507 111.848 19.7816 111.895 19.7816C112.234 19.7816 112.597 19.7738 112.968 19.7661C113.346 19.7507 113.709 19.743 114.064 19.7352C114.419 19.7198 114.751 19.7198 115.052 19.7198C115.36 19.7198 115.615 19.7198 115.823 19.7198C116.232 19.7198 116.51 19.797 116.665 19.9591C116.811 20.1212 116.896 20.3604 116.919 20.6769C116.919 20.9316 116.927 21.1785 116.935 21.4332C116.942 21.6802 116.942 21.9349 116.919 22.1819C116.85 22.645 116.487 22.8919 115.823 22.9383C115.252 22.9846 114.658 22.9923 114.048 22.9537C113.431 22.9228 112.836 22.9228 112.273 22.9691C111.995 22.9923 111.833 23.0386 111.779 23.1235C111.725 23.2007 111.694 23.3782 111.694 23.656C111.717 24.1346 111.725 24.6748 111.725 25.2846C111.725 25.8866 111.725 26.4731 111.725 27.0443C111.725 27.6154 111.725 28.1094 111.725 28.5339C111.725 28.9584 111.74 29.2131 111.756 29.3057C111.779 29.3752 111.825 29.4446 111.91 29.5141C111.995 29.5835 112.065 29.6144 112.134 29.6144C112.613 29.6376 113.199 29.6453 113.894 29.6299C114.588 29.6144 115.268 29.6144 115.931 29.6144H118.255C118.44 29.6376 118.617 29.6453 118.803 29.6299C118.988 29.6144 119.111 29.7688 119.181 30.0852C119.204 30.1778 119.219 30.3399 119.235 30.5715C119.242 30.8107 119.25 31.0654 119.25 31.3356C119.25 31.6057 119.242 31.8681 119.235 32.1151C119.227 32.3621 119.219 32.5319 119.219 32.6245C119.219 32.8097 119.158 32.9718 119.034 33.1107C118.911 33.2574 118.741 33.3423 118.54 33.3654C118.401 33.3654 118.077 33.3654 117.568 33.3654C117.058 33.3654 116.456 33.3654 115.777 33.3654C115.09 33.3654 114.372 33.3654 113.608 33.3654C112.844 33.3654 112.134 33.3654 111.486 33.3654C110.837 33.3654 110.282 33.3654 109.826 33.3654C109.371 33.3654 109.124 33.3654 109.078 33.3654C108.854 33.3654 108.661 33.2882 108.514 33.1262C108.368 32.9641 108.283 32.7711 108.26 32.5473C108.236 32.2694 108.229 31.6134 108.229 30.5637C108.229 29.5141 108.221 28.2869 108.213 26.8745C108.198 25.4621 108.198 23.9493 108.198 22.344C108.198 20.7386 108.198 19.2413 108.198 17.8443C108.198 16.4551 108.19 15.2665 108.182 14.2708C108.167 13.2829 108.167 12.6963 108.167 12.5111C108.167 12.102 108.352 11.8937 108.715 11.8937C108.985 11.8937 109.518 11.8937 110.305 11.8937C111.092 11.8937 111.949 11.8859 112.883 11.8782C113.817 11.8705 114.727 11.8551 115.615 11.8473C116.503 11.8319 117.189 11.8319 117.668 11.8319C118.602 11.7856 119.003 12.2333 118.864 13.1671C118.818 13.3524 118.795 13.5453 118.795 13.7383C118.795 13.9312 118.795 14.1242 118.795 14.3017C118.818 14.5255 118.748 14.7262 118.586 14.9037C118.424 15.0735 118.224 15.1584 117.969 15.1584C117.923 15.1584 117.745 15.1661 117.436 15.1738C117.128 15.1893 116.757 15.197 116.325 15.2047C115.893 15.2124 115.422 15.2279 114.905 15.2356C114.395 15.2433 113.917 15.2587 113.485 15.2665C113.053 15.2819 112.674 15.2973 112.358 15.3205C112.041 15.3436 111.849 15.3514 111.779 15.3514L111.764 15.3668ZM97.7475 18.6393C97.7475 18.755 97.9173 18.8091 98.2569 18.8091C98.5965 18.8091 98.9747 18.7087 99.3838 18.5003C99.7928 18.2997 100.171 17.9678 100.511 17.5279C100.85 17.0879 101.02 16.4859 101.02 15.7373C101.02 15.5598 101.012 15.251 101.005 14.8343C100.989 14.4098 100.989 13.9853 100.989 13.553C100.989 13.1208 100.989 12.7349 100.989 12.4108C100.989 12.0789 100.989 11.9014 100.989 11.8782C101.012 11.8551 101.113 11.8473 101.298 11.8473C101.483 11.8473 101.699 11.8473 101.946 11.8473C102.193 11.8473 102.456 11.8473 102.733 11.8473C103.004 11.8473 103.243 11.8473 103.451 11.8473C103.907 11.8473 104.169 11.8859 104.238 11.9708C104.308 12.048 104.354 12.3027 104.377 12.7426C104.377 12.9896 104.377 13.3215 104.377 13.7383C104.377 14.1473 104.377 14.5564 104.377 14.9655C104.377 15.3745 104.37 15.7604 104.362 16.1309C104.354 16.4936 104.347 16.7561 104.347 16.9181C104.323 17.1034 104.277 17.3349 104.208 17.6205C104.138 17.9061 104.038 18.1993 103.899 18.5081C103.76 18.8168 103.582 19.1178 103.366 19.4111C103.15 19.7044 102.872 19.9436 102.533 20.1289C102.371 20.2215 102.301 20.3141 102.324 20.4067C102.348 20.4993 102.417 20.5688 102.533 20.6074C102.919 20.8312 103.243 21.1091 103.505 21.4255C103.768 21.742 103.991 22.0661 104.169 22.3826C104.393 22.7916 104.547 23.2238 104.617 23.6792C104.686 24.1346 104.694 24.5899 104.648 25.0453C104.648 25.2537 104.648 25.5778 104.648 26.0178C104.648 26.4577 104.64 26.9671 104.632 27.5382C104.617 28.1094 104.617 28.7037 104.632 29.3134C104.64 29.9309 104.64 30.502 104.632 31.0268C104.617 31.5517 104.617 31.9993 104.617 32.3775C104.617 32.7557 104.617 32.9872 104.617 33.0798C104.617 33.1493 104.593 33.2188 104.547 33.3037C104.501 33.3809 104.455 33.4272 104.408 33.4272C104.269 33.4503 104.084 33.458 103.845 33.458C103.606 33.458 103.359 33.458 103.112 33.458C102.865 33.458 102.633 33.458 102.432 33.458C102.224 33.458 102.116 33.458 102.093 33.458C101.892 33.458 101.73 33.4426 101.614 33.4272C101.499 33.404 101.421 33.35 101.375 33.2574C101.329 33.1647 101.298 33.0258 101.29 32.8483C101.282 32.6631 101.275 32.4161 101.275 32.0919C101.275 31.7523 101.267 31.2275 101.259 30.5174C101.252 29.8151 101.244 29.051 101.244 28.2483C101.244 27.4379 101.236 26.6738 101.228 25.9406C101.213 25.2151 101.198 24.6517 101.174 24.2658C101.105 23.6715 100.881 23.2007 100.511 22.8456C100.132 22.4906 99.7156 22.2591 99.2603 22.1433C99.0982 22.1201 98.9284 22.0893 98.7509 22.043C98.5656 21.9967 98.4036 21.9889 98.2569 22.0275C98.1103 22.0584 97.9868 22.151 97.8942 22.2822C97.8016 22.4211 97.7552 22.6373 97.7552 22.9305C97.7552 23.247 97.7475 23.6946 97.7398 24.2658C97.7321 24.8369 97.7167 25.4698 97.7089 26.1644C97.7012 26.8591 97.6935 27.5691 97.6935 28.3023C97.6935 29.0356 97.6858 29.7148 97.6781 30.3399C97.6626 30.9651 97.6626 31.5208 97.6626 31.9993C97.6626 32.4778 97.6626 32.7943 97.6626 32.9564C97.6626 33.1416 97.6086 33.2651 97.5083 33.3345C97.4079 33.404 97.2844 33.4503 97.1532 33.4735C97.0143 33.4735 96.8059 33.4812 96.5203 33.5043C96.2348 33.5275 95.9415 33.5352 95.6328 33.5352C95.324 33.5352 95.0385 33.5275 94.7761 33.5198C94.5136 33.5043 94.3361 33.4812 94.2435 33.4349C94.1972 33.4117 94.174 33.3654 94.1586 33.2959C94.1509 33.2265 94.1432 33.157 94.1432 33.0876V12.3722C94.1432 12.1638 94.1663 12.0171 94.2126 11.9091C94.2589 11.8088 94.3979 11.7547 94.6217 11.7547C95.0308 11.7547 95.4707 11.747 95.9415 11.7393C96.4123 11.7239 96.8368 11.7084 97.2227 11.6853C97.5623 11.6853 97.7244 11.8551 97.7012 12.1947C97.7012 12.5343 97.7012 13.0359 97.7012 13.6843C97.7012 14.3326 97.7089 15.0041 97.7167 15.6832C97.7321 16.3624 97.7398 16.9953 97.7475 17.5665C97.763 18.1376 97.763 18.5004 97.763 18.6624L97.7475 18.6393ZM83.3919 12.1792C83.5076 12.1792 83.7469 12.1792 84.1096 12.1792C84.4724 12.1792 84.8583 12.1869 85.2519 12.1947C85.6533 12.2101 86.0006 12.2255 86.3093 12.2641C86.618 12.295 86.7801 12.349 86.8033 12.4185C86.8727 12.6037 86.9808 13.0051 87.1274 13.6302C87.2741 14.2554 87.4516 15.0195 87.66 15.9225C87.8684 16.8255 88.0845 17.8134 88.3237 18.894C88.563 19.9745 88.81 21.0782 89.0569 22.2128C89.3039 23.3396 89.5509 24.4433 89.7902 25.5238C90.0294 26.6044 90.2533 27.5846 90.4539 28.4644C90.6546 29.3443 90.8244 30.0775 90.9479 30.6718C91.0714 31.2661 91.1563 31.6288 91.2026 31.7678C91.3184 32.2231 91.3261 32.555 91.2335 32.7557C91.1408 32.9641 90.8707 33.1416 90.4153 33.3037C89.96 33.4657 89.4892 33.597 89.0106 33.7127C88.6942 33.8053 88.4704 33.8053 88.3469 33.7127C88.2234 33.6201 88.1231 33.4272 88.0536 33.1339C87.9378 32.5396 87.8143 31.9607 87.6754 31.3896C87.5365 30.8184 87.413 30.2396 87.2972 29.6453C87.2278 29.3983 87.058 29.2671 86.7878 29.2671C86.1935 29.2671 85.5684 29.2748 84.9046 29.2825C84.2408 29.298 83.608 29.298 82.9905 29.298C82.8979 29.298 82.8053 29.3366 82.7204 29.4215C82.6278 29.4986 82.5583 29.5835 82.512 29.6762C82.4657 29.7919 82.4039 29.9926 82.3268 30.2705C82.2496 30.556 82.1647 30.8493 82.0875 31.158C82.0026 31.4668 81.9408 31.7446 81.8791 31.9993C81.8251 32.2463 81.7788 32.4007 81.7556 32.447C81.5781 32.9023 81.362 33.1879 81.1227 33.3037C80.8835 33.4194 80.5362 33.4272 80.0808 33.3345C79.857 33.2882 79.6331 33.2574 79.417 33.2342C79.2009 33.2111 78.9771 33.1802 78.7533 33.1339C78.2284 33.0644 78.0355 32.7943 78.1744 32.3158C78.1976 32.2231 78.2825 31.8913 78.4291 31.3047C78.5758 30.7258 78.7687 29.9849 79.008 29.0819C79.2472 28.1788 79.5097 27.1678 79.7952 26.0409C80.0808 24.9141 80.3741 23.7564 80.6828 22.5678C80.9915 21.3792 81.3002 20.2138 81.609 19.0638C81.9177 17.9138 82.1878 16.8564 82.4271 15.8994C82.6664 14.9423 82.8747 14.1319 83.0445 13.4681C83.2143 12.8044 83.3224 12.3722 83.3687 12.1715L83.3919 12.1792ZM84.8969 19.3571C84.7811 19.7661 84.6731 20.2446 84.5573 20.7926C84.4415 21.3406 84.3335 21.904 84.2177 22.4829C84.1019 23.0617 83.9862 23.6329 83.8781 24.1886C83.7623 24.7443 83.6543 25.2305 83.5385 25.6396C83.469 25.9097 83.5617 26.0487 83.8164 26.0487C84.1328 26.0487 84.4878 26.0409 84.8737 26.0332C85.2596 26.0178 85.6147 26.0023 85.9311 25.9792C86.2476 25.9792 86.4328 25.9329 86.4791 25.8403C86.5254 25.7476 86.5254 25.5547 86.4791 25.2614C86.4096 24.9913 86.3402 24.644 86.2707 24.2349C86.2012 23.8258 86.1318 23.4013 86.0623 22.9537C85.9929 22.506 85.9234 22.0815 85.8616 21.6725C85.7922 21.2634 85.7382 20.9238 85.6918 20.646C85.5761 20.0748 85.4757 19.6658 85.3831 19.4111C85.2905 19.1641 85.221 19.0097 85.1593 18.948C85.1053 18.894 85.0512 18.9171 85.0049 19.0175C84.9586 19.1178 84.92 19.2259 84.9046 19.3416L84.8969 19.3571ZM71.9073 16.0383C71.9073 15.6987 71.7607 15.5289 71.4674 15.5289C70.9889 15.5752 70.4717 15.5829 69.9083 15.5443C69.3526 15.5134 68.8278 15.5134 68.3493 15.5598C68.303 15.5598 68.2489 15.6138 68.1795 15.7141C68.11 15.8145 68.0791 15.8994 68.0791 15.9688C68.0791 16.154 68.0791 16.6789 68.0791 17.5433C68.0791 18.4077 68.0791 19.4497 68.0791 20.6537C68.0791 21.8577 68.0714 23.1466 68.0637 24.5128C68.056 25.8789 68.0483 27.1601 68.0483 28.3409C68.0483 29.5295 68.0406 30.5252 68.0328 31.351C68.0174 32.1691 68.0174 32.6245 68.0174 32.7171C67.9942 32.7866 67.9634 32.856 67.9171 32.9409C67.8708 33.0181 67.8167 33.0798 67.7473 33.1262C66.9523 33.4194 66.1187 33.5043 65.2543 33.3654C64.8221 33.2959 64.606 33.0104 64.606 32.5087C64.606 32.3698 64.606 31.8604 64.606 30.9728C64.606 30.0852 64.6137 28.997 64.6214 27.708C64.6292 26.4191 64.6446 25.0144 64.6523 23.5017C64.6677 21.9889 64.6677 20.5456 64.6677 19.1795C64.6677 17.8134 64.66 16.6017 64.6523 15.5598C64.6446 14.5101 64.6369 13.8077 64.6369 13.4373C64.6369 13.3678 64.6292 13.252 64.6214 13.0977C64.606 12.9356 64.6137 12.7735 64.6369 12.6037C64.66 12.4339 64.7063 12.2873 64.7758 12.1561C64.8453 12.0326 64.9688 11.9708 65.154 11.9708C65.2466 11.9708 65.5476 11.9631 66.057 11.9554C66.5664 11.94 67.1838 11.94 67.9016 11.94C68.6194 11.94 69.3912 11.9322 70.2093 11.9245C71.0275 11.9168 71.7993 11.9014 72.5171 11.8937C73.2348 11.8859 73.8523 11.8782 74.3617 11.8782C74.8711 11.8782 75.1875 11.8782 75.3033 11.8782C75.4422 11.9014 75.5348 12.0249 75.5734 12.2564C75.6197 12.4802 75.6429 12.6192 75.6429 12.6655C75.6429 12.8275 75.6352 13.2057 75.6274 13.8077C75.6197 14.4098 75.612 15.1584 75.612 16.046C75.612 16.9336 75.612 17.9292 75.612 19.0406C75.612 20.1443 75.612 21.2711 75.612 22.4211C75.612 23.5711 75.612 24.7134 75.612 25.8403C75.612 26.9671 75.6043 28.009 75.5966 28.9661C75.5811 29.9231 75.5811 30.7413 75.5811 31.4282C75.5811 32.1151 75.5811 32.5936 75.5811 32.8637C75.5811 33.2728 75.5117 33.5429 75.3805 33.6664C75.2415 33.7899 74.9714 33.8285 74.5623 33.7822C74.2691 33.7822 73.9603 33.7822 73.6362 33.7822C73.3197 33.7822 73.011 33.7745 72.71 33.7513C72.3936 33.705 72.1775 33.6201 72.0617 33.4966C71.9459 33.3731 71.8919 33.1493 71.8919 32.8329C71.8919 32.6708 71.8919 32.1923 71.8919 31.3973C71.8919 30.6023 71.8919 29.6376 71.8919 28.5107C71.8919 27.3839 71.8919 26.1721 71.8919 24.8678C71.8919 23.5711 71.8919 22.3285 71.8919 21.1399C71.8919 19.9514 71.8996 18.9017 71.9073 17.9755C71.915 17.0493 71.9228 16.4087 71.9228 16.046L71.9073 16.0383ZM49.7564 22.8765C49.5711 22.5601 49.3319 22.2822 49.0386 22.0584C48.7453 21.8346 48.398 21.6956 48.0121 21.6493C47.6956 21.6262 47.3869 21.6262 47.0859 21.6493C46.7926 21.6725 46.4839 21.6956 46.1597 21.7188C45.8664 21.7188 45.7198 21.8809 45.7198 22.1973C45.743 22.5832 45.7584 22.9691 45.7738 23.3628C45.7815 23.7487 45.8047 24.1346 45.8279 24.5282C45.8279 25.4389 45.8279 26.3497 45.8279 27.2604C45.8279 28.1711 45.8124 29.0819 45.797 29.9926C45.797 30.3322 45.9668 30.4943 46.3064 30.4711C46.646 30.448 46.9933 30.448 47.3329 30.4711C47.6725 30.4943 48.0198 30.4943 48.3594 30.4711C48.8148 30.4248 49.2084 30.2396 49.5403 29.9231C49.8721 29.6067 50.0882 29.2285 50.204 28.7963C50.2503 28.5879 50.3121 28.2637 50.3893 27.8084C50.4664 27.353 50.5127 26.8359 50.5282 26.2725C50.5359 25.7013 50.4973 25.1148 50.3893 24.5128C50.2889 23.9107 50.0728 23.3705 49.7564 22.892V22.8765ZM46.8466 14.5024C46.6614 14.5255 46.4993 14.5332 46.3527 14.5332C46.206 14.5332 46.0362 14.5564 45.8587 14.6027C45.7893 14.6259 45.7198 14.6722 45.6503 14.7571C45.5809 14.8343 45.55 14.9114 45.55 14.9809C45.5732 15.4594 45.5809 15.9302 45.5654 16.401C45.5577 16.8718 45.5732 17.3426 45.6195 17.8212C45.6195 18.1376 45.7815 18.2765 46.098 18.2302C46.3218 18.2071 46.5456 18.1993 46.7617 18.2148C46.9778 18.2225 47.1862 18.2071 47.3946 18.1608C47.85 18.045 48.1973 17.8752 48.4366 17.6514C48.6758 17.4198 48.8302 17.1574 48.8997 16.8641C48.9691 16.5708 48.9537 16.2621 48.8688 15.9379C48.7762 15.6215 48.6295 15.2973 48.4211 14.9809C48.2205 14.6876 47.9658 14.541 47.6725 14.5564C47.3792 14.5718 47.1013 14.5487 46.8544 14.5024H46.8466Z" fill="black"/>
<path fill-rule="evenodd" clip-rule="evenodd" d="M7.82376 34.7238L9.61436 34.3533C9.69926 33.9288 9.25161 30.4016 9.16671 29.7302C8.96604 28.2097 8.88886 26.6275 8.6496 25.1147C8.42578 23.6792 8.05531 22.259 7.77746 20.8312C7.4996 19.4033 7.1986 17.9601 6.88987 16.5245L4.64391 16.1077C4.67478 16.5013 6.68148 24.2812 6.82041 24.8137C7.12142 25.9714 7.56907 33.6124 7.82376 34.7238ZM10.5019 14.2631C10.5097 14.6104 12.4392 22.8147 12.5858 23.5711L13.3345 28.503C13.4194 29.2053 13.9597 33.1647 14.114 33.4734L28.7553 30.7412C28.8093 30.4479 26.8643 23.0926 26.4553 21.5027L26.3163 21.0241C26.2469 20.8543 26.2855 20.9392 26.2237 20.8466C26.1234 21.2325 25.9227 22.1587 25.6526 22.2976C25.3593 22.4443 25.0197 22.3362 24.9194 22.0738C24.8036 21.7882 24.9425 21.5335 25.0274 21.2557C26.2469 17.2963 25.9073 18.4617 25.8069 14.0933C25.7375 11.1604 26.1774 11.6852 24.4563 11.9399C19.7714 12.6346 15.0711 13.6302 10.5019 14.2631ZM7.9241 16.2158C7.95497 16.7483 8.62645 19.6966 8.78081 20.4993C9.06638 21.958 9.41369 23.3396 9.65295 24.7906L10.6795 34.0909C11.0113 34.0986 12.8328 33.759 13.0258 33.6355C12.2231 28.1557 11.8526 24.6285 10.556 19.4111C10.3707 18.6547 10.1932 17.8674 10.0389 17.1188C9.95396 16.7174 9.63752 15.1429 9.49859 14.8728C9.05094 15.1198 8.4798 15.7836 7.91638 16.2235L7.9241 16.2158Z" fill="#41AB3C"/>
<path d="M17.0084 46C23.8711 46 29.4345 45.6372 29.4345 45.1896C29.4345 44.742 23.8711 44.3792 17.0084 44.3792C10.1456 44.3792 4.58223 44.742 4.58223 45.1896C4.58223 45.6372 10.1456 46 17.0084 46Z" fill="#DEDEDE"/>
</svg>
